<svg xmlns="http://www.w3.org/2000/svg" viewBox="0 0 64 64" role="img" aria-label="KeyLang">
  <defs>
    <linearGradient id="bg" x1="10" y1="6" x2="56" y2="58" gradientUnits="userSpaceOnUse">
      <stop offset="0" stop-color="#fbbf24"/>
      <stop offset=".48" stop-color="#f97316"/>
      <stop offset="1" stop-color="#b91c1c"/>
    </linearGradient>
    <linearGradient id="shine" x1="13" y1="7" x2="44" y2="46" gradientUnits="userSpaceOnUse">
      <stop offset="0" stop-color="#ffffff" stop-opacity=".46"/>
      <stop offset="1" stop-color="#ffffff" stop-opacity="0"/>
    </linearGradient>
    <filter id="softShadow" x="-20%" y="-20%" width="140%" height="140%">
      <feDropShadow dx="0" dy="5" stdDeviation="5" flood-color="#7f1d1d" flood-opacity=".28"/>
    </filter>
  </defs>

  <rect width="64" height="64" rx="17" fill="#111827"/>
  <rect x="5" y="5" width="54" height="54" rx="15" fill="url(#bg)" filter="url(#softShadow)"/>
  <path d="M9 20c7-11 25-14 39-7 5 3 7 7 7 7-14-6-31-3-46 0Z" fill="url(#shine)"/>

  <path
    d="M20 46V18h7v11.1L38 18h8.8L34.8 30.2 48 46h-9.2l-9-11-2.8 2.8V46h-7Z"
    fill="#fff"
  />

  <g fill="none" stroke="#fff7ed" stroke-width="3.1" stroke-linecap="round" stroke-linejoin="round">
    <circle cx="43" cy="22" r="4.8"/>
    <path d="M39.7 25.3 32.5 32.5"/>
    <path d="M33.9 31.1 38 35.2"/>
    <path d="M36.1 28.9 39.1 31.9"/>
  </g>

  <rect x="5.7" y="5.7" width="52.6" height="52.6" rx="14.3" fill="none" stroke="#fff7ed" stroke-opacity=".28"/>
</svg>
